REM DIRINDEX 1\2,1\3,1\4\5,1\4\6
REM DIRNAME "folder01","folder02","folder03","folder04","folder05","folder06"
TITLE ""
FILE "Step1_Track52.mp3" MP3
  TRACK 01 AUDIO
    TITLE "0:"
    INDEX 01 00:00:00
  TRACK 02 AUDIO
    TITLE "3:cjc164_1093"
    INDEX 01 00:00:24
  TRACK 03 AUDIO
    TITLE "0:"
    INDEX 01 00:02:09
  TRACK 04 AUDIO
    TITLE "3:cjc164_1094"
    INDEX 01 00:02:68
  TRACK 05 AUDIO
    TITLE "0:"
    INDEX 01 00:03:69
  TRACK 06 AUDIO
    TITLE "3:cjc164_1095"
    INDEX 01 00:04:10
  TRACK 07 AUDIO
    TITLE "0:"
    INDEX 01 00:05:06
  TRACK 08 AUDIO
    TITLE "2:cjc164_1096"
    INDEX 01 00:05:31
  TRACK 09 AUDIO
    TITLE "0:"
    INDEX 01 00:07:53
  TRACK 10 AUDIO
    TITLE "3:cjc164_1097"
    INDEX 01 00:08:16
  TRACK 11 AUDIO
    TITLE "0:"
    INDEX 01 00:09:15
  TRACK 12 AUDIO
    TITLE "2:cjc164_1098"
    INDEX 01 00:09:29
  TRACK 13 AUDIO
    TITLE "0:"
    INDEX 01 00:11:08
  TRACK 14 AUDIO
    TITLE "3:cjc164_1099"
    INDEX 01 00:11:51
  TRACK 15 AUDIO
    TITLE "0:"
    INDEX 01 00:12:49
  TRACK 16 AUDIO
    TITLE "3:cjc164_1100"
    INDEX 01 00:12:55
  TRACK 17 AUDIO
    TITLE "0:"
    INDEX 01 00:13:46
  TRACK 18 AUDIO
    TITLE "2:cjc164_1101"
    INDEX 01 00:13:62
  TRACK 19 AUDIO
    TITLE "0:"
    INDEX 01 00:16:11
  TRACK 20 AUDIO
    TITLE "3:cjc164_1102"
    INDEX 01 00:16:33
  TRACK 21 AUDIO
    TITLE "0:"
    INDEX 01 00:17:28
  TRACK 22 AUDIO
    TITLE "2:cjc164_1103"
    INDEX 01 00:17:40
  TRACK 23 AUDIO
    TITLE "0:"
    INDEX 01 00:19:10
  TRACK 24 AUDIO
    TITLE "3:cjc164_1104"
    INDEX 01 00:19:57
  TRACK 25 AUDIO
    TITLE "0:"
    INDEX 01 00:20:52
  TRACK 26 AUDIO
    TITLE "3:cjc164_1105"
    INDEX 01 00:20:66
  TRACK 27 AUDIO
    TITLE "0:"
    INDEX 01 00:21:61
  TRACK 28 AUDIO
    TITLE "2:cjc164_1106"
    INDEX 01 00:22:10
  TRACK 29 AUDIO
    TITLE "0:"
    INDEX 01 00:24:26
  TRACK 30 AUDIO
    TITLE "3:cjc164_1107"
    INDEX 01 00:24:38
  TRACK 31 AUDIO
    TITLE "0:"
    INDEX 01 00:25:47
  TRACK 32 AUDIO
    TITLE "2:cjc164_1108"
    INDEX 01 00:25:55
  TRACK 33 AUDIO
    TITLE "0:"
    INDEX 01 00:28:09
  TRACK 34 AUDIO
    TITLE "3:cjc164_1109"
    INDEX 01 00:28:36
  TRACK 35 AUDIO
    TITLE "0:"
    INDEX 01 00:29:34
  TRACK 36 AUDIO
    TITLE "3:cjc164_1110"
    INDEX 01 00:29:41
  TRACK 37 AUDIO
    TITLE "0:"
    INDEX 01 00:30:35
  TRACK 38 AUDIO
    TITLE "2:cjc164_1111"
    INDEX 01 00:30:58
  TRACK 39 AUDIO
    TITLE "0:"
    INDEX 01 00:33:25
  TRACK 40 AUDIO
    TITLE "3:cjc164_1112"
    INDEX 01 00:33:53
  TRACK 41 AUDIO
    TITLE "0:"
    INDEX 01 00:34:54
  TRACK 42 AUDIO
    TITLE "2:cjc164_1113"
    INDEX 01 00:34:62
  TRACK 43 AUDIO
    TITLE "0:"
    INDEX 01 00:36:63
  TRACK 44 AUDIO
    TITLE "3:cjc164_1114"
    INDEX 01 00:37:25
  TRACK 45 AUDIO
    TITLE "0:"
    INDEX 01 00:38:21
  TRACK 46 AUDIO
    TITLE "3:cjc164_1115"
    INDEX 01 00:38:36
  TRACK 47 AUDIO
    TITLE "0:"
    INDEX 01 00:39:32
  TRACK 48 AUDIO
    TITLE "2:cjc164_1116"
    INDEX 01 00:39:44
  TRACK 49 AUDIO
    TITLE "0:"
    INDEX 01 00:41:25
  TRACK 50 AUDIO
    TITLE "3:cjc164_1117"
    INDEX 01 00:41:56
  TRACK 51 AUDIO
    TITLE "0:"
    INDEX 01 00:42:62
  TRACK 52 AUDIO
    TITLE "2:cjc164_1118"
    INDEX 01 00:42:69
  TRACK 53 AUDIO
    TITLE "0:"
    INDEX 01 00:45:15
  TRACK 54 AUDIO
    TITLE "3:cjc164_1119"
    INDEX 01 00:45:38
  TRACK 55 AUDIO
    TITLE "0:"
    INDEX 01 00:46:40
  TRACK 56 AUDIO
    TITLE "3:cjc164_1120"
    INDEX 01 00:46:50
  TRACK 57 AUDIO
    TITLE "0:"
    INDEX 01 00:47:45
  TRACK 58 AUDIO
    TITLE "2:cjc164_1121"
    INDEX 01 00:47:59
  TRACK 59 AUDIO
    TITLE "0:"
    INDEX 01 00:49:40
  TRACK 60 AUDIO
    TITLE "3:cjc164_1122"
    INDEX 01 00:49:70
  TRACK 61 AUDIO
    TITLE "0:"
    INDEX 01 00:50:65
  TRACK 62 AUDIO
    TITLE "2:cjc164_1123"
    INDEX 01 00:50:73
  TRACK 63 AUDIO
    TITLE "0:"
    INDEX 01 00:53:14
  TRACK 64 AUDIO
    TITLE "3:cjc164_1124"
    INDEX 01 00:53:52
  TRACK 65 AUDIO
    TITLE "0:"
    INDEX 01 00:54:59
  TRACK 66 AUDIO
    TITLE "3:cjc164_1125"
    INDEX 01 00:54:65
  TRACK 67 AUDIO
    TITLE "0:"
    INDEX 01 00:55:58
  TRACK 68 AUDIO
    TITLE "2:cjc164_1126"
    INDEX 01 00:55:72
  TRACK 69 AUDIO
    TITLE "0:"
    INDEX 01 00:58:31
  TRACK 70 AUDIO
    TITLE "3:cjc164_1127"
    INDEX 01 00:58:61
  TRACK 71 AUDIO
    TITLE "0:"
    INDEX 01 00:59:56
  TRACK 72 AUDIO
    TITLE "2:cjc164_1128"
    INDEX 01 00:59:62
  TRACK 73 AUDIO
    TITLE "0:"
    INDEX 01 01:02:47
